<svg width="424.6" height="387.20000000000005" xmlns="http://www.w3.org/2000/svg" xmlns:xlink="http://www.w3.org/1999/xlink"><line x1="69.75" y1="7.0" x2="48.0" y2="31.0" style="stroke:black; stroke-width:1px;" />
<line x1="48.0" y1="38.0" x2="16.0" y2="62.0" style="stroke:black; stroke-width:1px;" />
<line x1="16.0" y1="69.0" x2="16.0" y2="93.0" style="stroke:black; stroke-width:1px;" />
<line x1="48.0" y1="38.0" x2="48.0" y2="62.0" style="stroke:black; stroke-width:1px;" />
<line x1="48.0" y1="38.0" x2="80.0" y2="62.0" style="stroke:black; stroke-width:1px;" />
<line x1="80.0" y1="69.0" x2="53.5" y2="93.0" style="stroke:black; stroke-width:1px;" />
<line x1="53.5" y1="100.0" x2="53.5" y2="124.0" style="stroke:black; stroke-width:1px;" />
<line x1="80.0" y1="69.0" x2="80.0" y2="93.0" style="stroke:black; stroke-width:1px;" />
<line x1="80.0" y1="69.0" x2="106.5" y2="93.0" style="stroke:black; stroke-width:1px;" />
<line x1="106.5" y1="100.0" x2="106.5" y2="124.0" style="stroke:black; stroke-width:1px;" />
<line x1="69.75" y1="7.0" x2="91.5" y2="31.0" style="stroke:black; stroke-width:1px;" />
<rect x="1.5" y="62.0" width="29.0" height="14.0" style="fill:orange; stroke:rgb(0,0,0);" rx="1"/>
<text x="3" y="71" style="font-family:sans-serif;font-size:10px;">
expr
</text>
<rect x="39.0" y="93.0" width="29.0" height="14.0" style="fill:orange; stroke:rgb(0,0,0);" rx="1"/>
<text x="41" y="102" style="font-family:sans-serif;font-size:10px;">
expr
</text>
<rect x="92.0" y="93.0" width="29.0" height="14.0" style="fill:orange; stroke:rgb(0,0,0);" rx="1"/>
<text x="94" y="102" style="font-family:sans-serif;font-size:10px;">
expr
</text>
<rect x="69.5" y="31.0" width="44.0" height="14.0" style="fill:orange; stroke:rgb(0,0,0);" rx="1"/>
<text x="71" y="40" style="font-family:sans-serif;font-size:10px;">
&lt;EOF&gt;
</text>
<rect x="65.5" y="62.0" width="29.0" height="14.0" style="fill:orange; stroke:rgb(0,0,0);" rx="1"/>
<text x="67" y="71" style="font-family:sans-serif;font-size:10px;">
expr
</text>
<rect x="33.5" y="31.0" width="29.0" height="14.0" style="fill:orange; stroke:rgb(0,0,0);" rx="1"/>
<text x="35" y="40" style="font-family:sans-serif;font-size:10px;">
expr
</text>
<rect x="41.5" y="62.0" width="13.0" height="14.0" style="fill:orange; stroke:rgb(0,0,0);" rx="1"/>
<text x="43" y="71" style="font-family:sans-serif;font-size:10px;">
+
</text>
<rect x="94.0" y="124.0" width="25.0" height="14.0" style="fill:orange; stroke:rgb(0,0,0);" rx="1"/>
<text x="96" y="133" style="font-family:sans-serif;font-size:10px;">
789
</text>
<rect x="0.0" y="93.0" width="32.0" height="14.0" style="fill:orange; stroke:rgb(0,0,0);" rx="1"/>
<text x="2" y="102" style="font-family:sans-serif;font-size:10px;">
A123
</text>
<rect x="75.0" y="93.0" width="10.0" height="14.0" style="fill:orange; stroke:rgb(0,0,0);" rx="1"/>
<text x="77" y="102" style="font-family:sans-serif;font-size:10px;">
*
</text>
<rect x="40.0" y="124.0" width="27.0" height="14.0" style="fill:orange; stroke:rgb(0,0,0);" rx="1"/>
<text x="42" y="133" style="font-family:sans-serif;font-size:10px;">
Z56
</text>
<rect x="53.75" y="0.0" width="32.0" height="14.0" style="fill:orange; stroke:rgb(0,0,0);" rx="1"/>
<text x="55" y="9" style="font-family:sans-serif;font-size:10px;">
main
</text>
</svg>